<?xml version="1.0"?>
<svg width="300" height="240" xmlns="http://www.w3.org/2000/svg"
    xmlns:svg="http://www.w3.org/2000/svg" version="1.0">
    <g class="layer">
        <g fill="#2dd4bf" id="svg_1" transform="matrix(0.296936 0 0 -0.309144 -308.31 -251.513)">
            <path
                d="m1641,-1035l-33,-11l95,-38c87,-34 98,-36 122,-24c26,14 25,15 -62,49c-78,31 -93,34 -122,24z"
                fill="#e6bb13" id="svg_3" />
            <path
                d="m1516,-1083c-28,-12 -27,-13 65,-50c90,-37 95,-38 129,-23c31,13 33,15 15,22c-11,4 -53,20 -93,36c-82,32 -77,31 -116,15z"
                fill="#e6bb13" id="svg_4" />
            <path d="m1888,-1117c-21,-9 -38,-19 -38,-24c0,-7 87,25 99,37c9,9 -25,1 -61,-13z"
                fill="#e6bb13" id="svg_5" />
            <path
                d="m1424,-1283l1,-113l94,-40c52,-21 99,-40 103,-42c4,-2 8,48 8,111l0,115l-97,41c-54,23 -101,41 -104,41c-4,0 -6,-51 -5,-113zm121,40c11,-6 24,-11 28,-12c18,0 27,-34 27,-101c0,-39 -3,-73 -6,-77c-3,-3 -18,-1 -32,5c-109,43 -113,49 -111,147l2,79l36,-15c20,-8 45,-20 56,-26z"
                fill="#e6bb13" id="svg_6" />
            <path
                d="m1878,-1183c-21,-8 -28,-18 -28,-39c0,-20 -4,-26 -15,-22c-8,4 -17,-1 -21,-10c-10,-26 -25,-18 -18,9c7,30 5,30 -41,8l-35,-17l0,-112l0,-112l100,42l100,41l0,113c0,61 -3,112 -7,111c-5,-1 -20,-6 -35,-12zm15,-83c10,-10 -12,-44 -28,-44c-15,0 -21,31 -8,43c8,9 28,9 36,1zm-69,-33c10,-15 -20,-45 -38,-38c-14,5 -15,11 -6,27c11,20 35,27 44,11zm79,-31c-7,-25 -68,-80 -89,-80c-24,0 -54,19 -54,35c0,18 5,19 29,4c27,-18 69,-3 86,31c18,34 36,40 28,10z"
                fill="#e6bb13" id="svg_7" />
            <path
                d="m1340,-842c-14,-5 -28,-16 -33,-24c-4,-8 -23,-14 -42,-14c-30,0 -65,-20 -65,-38c0,-4 -19,-8 -42,-10c-22,-1 -48,-7 -57,-13c-13,-8 -10,-9 12,-6c19,3 72,-13 160,-49c124,-51 129,-54 102,-64c-24,-9 -44,-4 -151,40c-132,53 -163,61 -126,30l23,-19l-25,-7c-36,-9 -34,-47 2,-82c17,-16 29,-39 30,-57c2,-38 34,-65 134,-113c61,-29 78,-42 78,-59l0,-22l-47,21c-27,11 -58,32 -70,47l-23,26l11,-33c9,-27 51,-62 74,-62c3,0 18,-3 35,-7c26,-5 31,-11 36,-43c7,-41 8,-42 159,-110c39,-17 81,-37 94,-43c32,-16 120,-14 131,3c4,7 12,10 18,6c6,-3 12,-1 14,4c2,6 11,12 20,13c9,2 23,9 32,16c9,7 23,11 31,7c9,-3 18,0 21,8c3,8 19,16 35,20c16,3 41,17 54,30c25,25 25,28 25,183c-1,191 -1,192 -120,233c-19,7 -44,16 -55,21c-57,25 -153,57 -158,52c-3,-3 -21,6 -39,20c-18,14 -64,37 -103,52c-38,15 -74,31 -80,35c-17,14 -69,18 -95,8zm173,-65c112,-44 131,-61 77,-65c-26,-2 -270,92 -270,104c0,9 40,16 60,11c8,-2 68,-25 133,-50zm7,-94c0,-4 -12,-10 -26,-13c-19,-5 -61,7 -155,46c-123,50 -139,62 -95,70c21,3 275,-92 276,-103zm294,-30c72,-28 137,-56 144,-61c9,-8 12,-55 12,-173l0,-163l-37,-15c-21,-9 -86,-36 -145,-61l-108,-45l0,165c0,161 0,165 23,173c65,25 100,42 95,46c-3,3 -32,-6 -65,-20l-60,-26l-133,56c-73,30 -135,54 -137,52c-2,-3 57,-31 132,-62l135,-58l0,-164c0,-89 -1,-163 -3,-163c-2,0 -66,27 -143,60l-139,59l-2,163c-2,90 0,168 5,173c8,12 259,114 281,114c8,1 74,-22 145,-50zm-591,-55c99,-41 117,-51 117,-70c0,-21 -5,-20 -122,28c-68,28 -124,51 -124,52c-1,0 -5,12 -9,25c-6,18 -4,23 6,19c8,-3 67,-27 132,-54zm25,-94c80,-30 92,-38 92,-59c0,-14 -5,-21 -12,-18c-7,3 -49,19 -93,37c-44,18 -81,33 -81,34c-8,8 -14,47 -7,45c5,-2 50,-20 101,-39z"
                fill="#e6bb13" id="svg_2" stroke="#007f3f" />
        </g>
    </g>
</svg>